<svg width="16" height="16" viewBox="0 0 16 16" fill="none" xmlns="http://www.w3.org/2000/svg">
<path d="M8.09341 10.5714H4.11539V7.59341H8.09341C8.63553 7.59341 9.07509 7.50183 9.41209 7.31868C9.74909 7.13553 9.99451 6.88278 10.1484 6.56044C10.3095 6.23077 10.3901 5.86081 10.3901 5.45055C10.3901 5.01099 10.3095 4.6044 10.1484 4.23077C9.99451 3.85714 9.74909 3.55678 9.41209 3.32967C9.07509 3.09524 8.63553 2.97802 8.09341 2.97802H5.56594V16H1.70879V0H8.09341C9.37546 0 10.478 0.234432 11.4011 0.703297C12.3315 1.17216 13.0458 1.81685 13.544 2.63736C14.0421 3.45055 14.2912 4.38095 14.2912 5.42857C14.2912 6.46154 14.0421 7.36264 13.544 8.13187C13.0458 8.9011 12.3315 9.50183 11.4011 9.93407C10.478 10.359 9.37546 10.5714 8.09341 10.5714Z" fill="black"/>
</svg>
